<svg width="329" height="108" viewBox="0 0 329 108" fill="none" xmlns="http://www.w3.org/2000/svg">
<path fill-rule="evenodd" clip-rule="evenodd" d="M144.465 33.5179C141.297 33.5179 137.538 34.2293 133.431 39.2741V25.1561C133.431 21.5897 130.698 18.6884 127.339 18.6884C123.98 18.6884 121.248 21.5897 121.248 25.1561V71.1967C121.248 74.7631 123.98 77.6643 127.339 77.6643C130.698 77.6643 133.431 74.7631 133.431 71.1967V53.3274C133.431 48.1902 135.728 45.3537 139.914 45.3537C144.012 45.3537 146.17 48.1071 146.17 53.3274V71.1967C146.17 74.7631 148.903 77.6643 152.262 77.6643C155.621 77.6643 158.353 74.7631 158.353 71.1967V49.5762C158.344 39.5236 153.158 33.5179 144.465 33.5179ZM179.447 33.8322C174.487 33.8322 170.554 34.5159 166.699 36.0497C164.697 36.8443 163.357 38.8955 163.357 41.1499C163.357 44.162 165.611 46.5181 168.491 46.5181C169.083 46.5181 169.579 46.4257 170.258 46.1854C172.599 45.4093 175.07 45.0397 177.829 45.0397C184.373 45.0397 185.765 48.8741 185.782 52.1172C183.511 51.3319 180.648 50.6112 176.654 50.6112C166.246 50.6112 160.277 55.6652 160.277 64.4889V64.646C160.277 72.6197 165.916 77.9786 174.304 77.9786C179.03 77.9786 182.815 76.4541 185.834 73.3312C186.348 75.6133 188.41 77.6737 191.578 77.6737C194.911 77.6737 197.521 74.9388 197.521 71.4463V52.3852C197.521 46.3887 196.042 41.7689 193.109 38.6645C190.081 35.4584 185.486 33.8322 179.447 33.8322ZM177.681 68.7114C174.226 68.7114 172.085 66.9744 172.085 64.1748V64.0177C172.085 60.6823 174.713 58.7789 179.299 58.7789C181.649 58.7789 183.99 59.2686 185.93 60.1556V61.9203C185.93 65.9118 182.536 68.7114 177.681 68.7114ZM213.846 39.3855C216.996 35.4402 220.877 33.5184 225.68 33.5184C234.844 33.5184 244.111 41.1225 244.111 55.6655V55.8226C244.111 62.5213 242.171 68.1943 238.507 72.2412C235.157 75.9463 230.606 77.979 225.68 77.979C220.938 77.979 217.17 76.2604 213.907 72.6016V83.689C213.907 87.2555 211.174 90.1567 207.815 90.1567C204.456 90.1567 201.724 87.2555 201.724 83.689V40.3002C201.724 36.7337 204.456 33.8325 207.815 33.8325C210.887 33.8325 213.428 36.2533 213.846 39.3855ZM231.937 55.6655C231.937 49.3919 228.013 44.652 222.809 44.652C217.57 44.652 213.759 49.281 213.759 55.6655V55.8226C213.759 62.2071 217.561 66.8361 222.809 66.8361C228.1 66.8361 231.937 62.2071 231.937 55.8226V55.6655ZM270.878 33.5184C266.075 33.5184 262.194 35.4402 259.044 39.3855C258.626 36.2533 256.085 33.8325 253.013 33.8325C249.654 33.8325 246.922 36.7337 246.922 40.3002V83.689C246.922 87.2555 249.654 90.1567 253.013 90.1567C256.372 90.1567 259.105 87.2555 259.105 83.689V72.6016C262.368 76.2604 266.136 77.979 270.878 77.979C275.804 77.979 280.355 75.9463 283.705 72.2412C287.368 68.1943 289.309 62.5213 289.309 55.8226V55.6655C289.309 41.1225 280.041 33.5184 270.878 33.5184ZM268.007 44.652C273.21 44.652 277.135 49.3919 277.135 55.6655V55.8226C277.135 62.2071 273.297 66.8361 268.007 66.8361C262.759 66.8361 258.957 62.2071 258.957 55.8226V55.6655C258.957 49.281 262.768 44.652 268.007 44.652ZM316.485 38.7108C317.617 35.5139 319.635 33.8323 322.324 33.8323C325.57 33.8323 328.12 36.4656 328.111 39.8103C328.111 40.7804 327.815 42.1848 327.554 42.8316L313.814 77.8679C310.359 86.7471 306.756 89.8977 300.047 89.8977C297.68 89.8977 295.862 89.5651 293.773 88.7705C292.337 88.2161 289.918 86.7748 289.918 83.3562C289.918 79.993 292.416 77.988 294.826 77.988C295.783 77.988 296.358 78.1635 296.819 78.3299C297.767 78.644 298.289 78.7734 299.012 78.7734C300.839 78.7734 301.605 78.4592 302.527 76.5836L302.806 75.8814L289.44 42.9979C289.135 42.1848 288.813 40.9283 288.813 40.0505C288.813 36.5025 291.398 33.8231 294.826 33.8231C297.654 33.8231 299.569 35.3938 300.665 38.6276L308.714 61.6063L316.485 38.7108Z" fill="white"/>
<path d="M87.7866 27.7212V65.5129C87.7866 80.5124 76.2636 92.6732 62.0508 92.6732H59.4477L46.1546 106.693C45.634 107.242 44.9138 107.59 44.1155 107.59C43.378 107.59 42.7099 107.306 42.1979 106.83L41.9723 106.592L41.9636 106.583L28.7833 92.6732H26.1716C11.9674 92.6732 0.444427 80.5124 0.444427 65.5129V27.7212C0.444427 12.7217 11.9674 0.560974 26.1803 0.560974H62.0508C76.2636 0.560974 87.7866 12.7217 87.7866 27.7212Z" fill="#FFD666"/>
<path d="M20.7803 52.9142C18.2466 52.9142 16.8024 55.9611 18.2725 58.1612C23.9885 66.7312 33.4401 72.3188 44.1197 72.3188C54.7993 72.3188 64.2423 66.722 69.9583 58.1612C71.4283 55.9611 69.9842 52.9142 67.4505 52.9142H20.7803Z" fill="white"/>
<path d="M35.6194 39.9446H20.3308V31.8071C20.3308 27.315 23.7552 23.6697 27.9751 23.6697C32.195 23.6697 35.6194 27.315 35.6194 31.8071V39.9446Z" fill="white"/>
<path d="M67.9094 39.9446H52.6207V31.8072C52.6207 27.315 56.0451 23.6697 60.265 23.6697C64.485 23.6697 67.9094 27.315 67.9094 31.8072V39.9446Z" fill="white"/>
</svg>
